<svg width="208" height="95" viewBox="0 0 208 95" fill="none" xmlns="http://www.w3.org/2000/svg">
<path fill-rule="evenodd" clip-rule="evenodd" d="M10.7237 68.1003C6.39897 70.4789 2.3666 72.4744 1.76292 72.5328C1.15925 72.592 8.30527 73.1538 17.6434 73.7818C35.1811 74.9602 52.1294 77.2997 64.1991 80.2079C68.0155 81.1277 71.7988 81.646 72.6072 81.3603C73.574 81.0171 73.8428 81.1869 73.3939 81.8585C73.0184 82.4194 73.1364 82.8775 73.6551 82.8775C76.4519 82.8775 75.1275 81.0023 71.1961 79.3971C59.4914 74.6162 41.1396 71.0486 23.5217 70.1288L12.2452 69.54L15.8871 66.6605C17.8905 65.077 19.3176 63.7801 19.0583 63.7784C18.7989 63.7767 15.0485 65.7216 10.7237 68.1003ZM187.663 66.2311C189.349 67.7083 190.729 69.0584 190.729 69.2308C190.729 69.4033 185.742 69.797 179.646 70.1044C160.518 71.0704 141.878 75.1736 127.255 81.6381C119.913 84.8834 120.073 86.2849 127.49 83.6832C141.636 78.7194 166.28 74.7259 189.16 73.6894L203.156 73.0545L197.649 70.3352C194.622 68.8398 190.446 66.7006 188.371 65.5805L184.598 63.545L187.663 66.2311ZM139.794 70.6836C139.015 71.1479 138.803 71.5276 139.322 71.5276C139.841 71.5276 140.902 71.1479 141.68 70.6836C142.458 70.2194 142.67 69.8397 142.152 69.8397C141.633 69.8397 140.572 70.2194 139.794 70.6836ZM135.556 72.416C135.225 72.909 135.604 73.0554 136.443 72.7584C138.077 72.1791 138.376 71.5546 137.019 71.5546C136.531 71.5546 135.872 71.9422 135.556 72.416ZM128.239 75.5368C124.582 77.3685 124.996 78.0009 128.71 76.2571C132.266 74.5866 132.896 74.1545 131.698 74.2024C131.221 74.2216 129.665 74.8217 128.239 75.5368ZM5.99149 81.8533L0 85.926L8.61748 86.1769C15.3805 86.3737 17.5472 86.1394 18.6857 85.0881C20.6401 83.2834 23.9924 83.3984 26.4344 85.3546C28.0757 86.669 30.7271 87.0618 41.0519 87.5191C55.2572 88.1479 79.6674 90.9064 88.7593 92.9096C92.0767 93.6413 94.9479 94.0933 95.1404 93.9165C95.6393 93.4549 80.4729 89.0764 71.5894 87.1167C57.2125 83.9462 46.783 82.7504 29.1981 82.2583C19.4714 81.9856 11.5123 81.5954 11.5123 81.3916C11.5123 81.1878 11.9519 80.2628 12.4886 79.3361C13.9383 76.8346 12.6291 77.3424 5.99149 81.8533ZM122.288 79.006C120.53 80.3072 120.541 80.3229 122.579 79.411C123.747 78.8884 124.702 78.2787 124.702 78.0566C124.702 77.3903 124.212 77.5828 122.288 79.006ZM191.447 79.8552L191.892 82.0065H179.249C161.356 82.0065 139.773 84.7014 125.881 88.6696C120.434 90.2252 119.08 92.0909 123.994 91.2678C138.105 88.9039 173.858 86.385 193.511 86.3702L204.311 86.3615L198.699 82.6101C190.824 77.3467 190.936 77.3894 191.447 79.8552ZM117.978 81.7888C116.806 83.1702 116.839 83.2007 118.335 82.118C119.243 81.4604 119.985 80.7741 119.985 80.5938C119.985 79.877 119.211 80.3377 117.978 81.7888ZM76.6339 82.8558C75.8255 83.3174 76.6339 83.8975 79.0769 84.6117C81.0851 85.1987 85.8051 87.1881 89.5658 89.0328C93.3265 90.8776 96.4043 92.2294 96.4043 92.0378C96.4043 91.6214 81.4954 83.4628 79.3401 82.699C78.5147 82.4072 77.297 82.4778 76.6339 82.8558ZM111.654 86.1438L108.112 89.41L111.455 86.7996C113.293 85.3634 115.2 83.894 115.694 83.5334C116.187 83.1728 116.277 82.8775 115.893 82.8775C115.51 82.8775 113.602 84.3478 111.654 86.1438ZM89.2668 84.5246C89.9393 85.5297 93.5746 87.5582 93.5746 86.9276C93.5746 86.7264 92.4615 85.8886 91.1004 85.0646C89.7393 84.2415 88.914 83.9985 89.2668 84.5246ZM20.4731 85.4905C18.9913 86.0784 19.395 86.2491 22.3596 86.2866C25.1271 86.3223 25.7553 86.1098 24.7177 85.4905C23.067 84.5054 22.9548 84.5054 20.4731 85.4905ZM118.866 86.0854C119.546 86.3371 120.36 86.3058 120.673 86.0166C120.986 85.7274 120.43 85.5219 119.436 85.5593C118.337 85.6011 118.113 85.8076 118.866 86.0854ZM113.861 88.0939C113.531 88.5869 113.909 88.7332 114.749 88.4362C116.382 87.857 116.681 87.2325 115.325 87.2325C114.836 87.2325 114.178 87.6201 113.861 88.0939ZM109.479 90.7679L107.252 92.5621L109.846 91.1032C111.273 90.301 112.439 89.4945 112.439 89.3098C112.439 88.6296 111.652 89.018 109.479 90.7679ZM117.154 91.192C114.882 92.3539 114.871 92.3975 116.864 92.428C118.001 92.4445 119.211 92.0404 119.552 91.5291C120.558 90.0275 119.677 89.903 117.154 91.192ZM108.195 93.7684L105.365 95L108.195 94.4704C109.751 94.1795 111.874 93.6326 112.911 93.2554L114.798 92.5691L112.911 92.5525C111.874 92.5438 109.751 93.0908 108.195 93.7684Z" fill="#FF0000" fill-opacity="0.5"/>
<path fill-rule="evenodd" clip-rule="evenodd" d="M7.67984 71.0532L1.68835 75.126L10.3058 75.3768C17.0689 75.5737 19.2355 75.3394 20.374 74.2881C22.3284 72.4834 25.6807 72.5983 28.1228 74.5546C29.764 75.8689 32.4155 76.2617 42.7402 76.719C56.9455 77.3479 81.3557 80.1063 90.4477 82.1096C93.765 82.8412 96.6363 83.2933 96.8287 83.1165C97.3277 82.6548 82.1613 78.2764 73.2778 76.3166C58.9009 73.1462 48.4714 71.9503 30.8865 71.4582C21.1597 71.1856 13.2007 70.7954 13.2007 70.5916C13.2007 70.3878 13.6402 69.4628 14.1769 68.536C15.6267 66.0346 14.3175 66.5423 7.67984 71.0532ZM193.135 69.0552L193.58 71.2065H180.937C163.044 71.2065 141.461 73.9013 127.569 77.8696C122.123 79.4252 120.768 81.2909 125.683 80.4678C139.793 78.1039 175.546 75.585 195.2 75.5702L206 75.5615L200.388 71.8101C192.512 66.5467 192.625 66.5894 193.135 69.0552ZM78.3223 72.0557C77.5139 72.5173 78.3222 73.0974 80.7653 73.8116C82.7734 74.3987 87.4934 76.388 91.2541 78.2328C95.0149 80.0776 98.0927 81.4293 98.0927 81.2377C98.0927 80.8214 83.1837 72.6628 81.0284 71.8989C80.2031 71.6072 78.9854 71.6777 78.3223 72.0557ZM90.9551 73.7245C91.6277 74.7297 95.2629 76.7582 95.2629 76.1276C95.2629 75.9264 94.1499 75.0885 92.7888 74.2646C91.4277 73.4415 90.6024 73.1985 90.9551 73.7245ZM22.1615 74.6905C20.6796 75.2784 21.0833 75.4491 24.048 75.4866C26.8154 75.5223 27.4436 75.3098 26.4061 74.6905C24.7554 73.7054 24.6432 73.7054 22.1615 74.6905ZM120.554 75.2854C121.234 75.5371 122.048 75.5057 122.361 75.2166C122.675 74.9274 122.118 74.7218 121.124 74.7593C120.025 74.8011 119.801 75.0075 120.554 75.2854ZM111.167 79.9678L108.94 81.7621L111.534 80.3032C112.961 79.501 114.128 78.6944 114.128 78.5098C114.128 77.8295 113.34 78.218 111.167 79.9678ZM118.842 80.392C116.57 81.5539 116.56 81.5974 118.553 81.6279C119.689 81.6445 120.899 81.2403 121.241 80.7291C122.246 79.2275 121.365 79.1029 118.842 80.392ZM109.883 82.9684L107.053 84.2L109.883 83.6704C111.44 83.3795 113.562 82.8325 114.599 82.4554L116.486 81.769L114.599 81.7525C113.562 81.7438 111.44 82.2908 109.883 82.9684Z" fill="#FCA701" fill-opacity="0.45"/>
<path d="M30.2147 45.4525L29.7474 46.8778C29.8982 46.9273 30.056 46.9525 30.2147 46.9525V45.4525ZM73.3466 2.02023L73.2826 3.51886L73.3466 2.02023ZM89.6503 17.7414H88.1503C88.1503 18.2082 88.3677 18.6485 88.7383 18.9323C89.109 19.2161 89.5907 19.3112 90.0414 19.1895L89.6503 17.7414ZM92.3988 45.4525L92.5099 43.9566C92.4729 43.9538 92.4359 43.9525 92.3988 43.9525V45.4525ZM26.1084 28.9126L27.0911 30.0459L26.1084 28.9126ZM43.6135 43.9525H30.2147V46.9525H43.6135V43.9525ZM30.6821 44.0271C29.6745 43.6968 28.0833 42.8818 26.7674 41.5628C25.4735 40.2658 24.5 38.5436 24.5 36.3281H21.5C21.5 39.5196 22.9314 41.9653 24.6436 43.6816C26.3338 45.3759 28.3501 46.4196 29.7474 46.8778L30.6821 44.0271ZM73.2826 3.51886C79.1644 3.77041 82.83 6.19422 85.0547 9.06018C87.3237 11.9833 88.1503 15.4452 88.1503 17.7414H91.1503C91.1503 14.8558 90.1466 10.7275 87.4245 7.22065C84.658 3.65665 80.1718 0.810755 73.4107 0.521602L73.2826 3.51886ZM90.0414 19.1895C92.7622 18.4548 96.8777 18.1653 100.392 19.5583C102.123 20.2445 103.698 21.3329 104.922 22.9772C106.146 24.6228 107.076 26.9026 107.397 30.0589L110.382 29.7555C110.016 26.153 108.928 23.3356 107.328 21.1864C105.728 19.036 103.674 17.632 101.498 16.7693C97.196 15.0645 92.379 15.4509 89.2593 16.2932L90.0414 19.1895ZM107.397 30.0589C107.718 33.2146 107.262 35.6217 106.391 37.46C105.52 39.2967 104.194 40.6564 102.63 41.6529C99.4531 43.6769 95.342 44.1668 92.5099 43.9566L92.2878 46.9483C95.5252 47.1887 100.347 46.6648 104.242 44.1829C106.213 42.9265 107.957 41.1602 109.102 38.7445C110.246 36.3305 110.748 33.3586 110.382 29.7555L107.397 30.0589ZM92.3988 43.9525H43.6135V46.9525H92.3988V43.9525ZM24.5 36.3281C24.5 33.5866 25.5229 31.4057 27.0911 30.0459L25.1258 27.7793C22.8197 29.7789 21.5 32.8296 21.5 36.3281H24.5ZM59.428 12.4604C60.1909 10.088 61.6255 7.77577 63.8448 6.10241C66.0474 4.4417 69.1138 3.34057 73.2826 3.51886L73.4107 0.521602C68.6127 0.316401 64.8471 1.5895 62.0387 3.70702C59.2471 5.81189 57.4918 8.68188 56.572 11.542L59.428 12.4604ZM27.0911 30.0459C27.6274 29.5808 28.2354 29.204 28.9039 28.9285L27.7608 26.1548C26.7911 26.5545 25.9058 27.1029 25.1258 27.7793L27.0911 30.0459Z" fill="black"/>
<g filter="url(#filter0_d)">
<path d="M24.0186 61.4738C24.0005 62.2243 23.8423 62.8979 23.5439 63.4946C23.2546 64.0823 22.8522 64.6022 22.3369 65.0542C21.8305 65.5063 21.2293 65.8906 20.5331 66.207C19.8459 66.5325 19.0955 66.7947 18.2818 66.9936C17.4771 67.1925 16.6272 67.3372 15.7321 67.4276C14.846 67.5271 13.9509 67.5768 13.0468 67.5768C12.3416 67.5768 11.6363 67.5497 10.9311 67.4954C10.2259 67.4412 9.53871 67.3643 8.86964 67.2649C8.20962 67.1745 7.5722 67.0569 6.95738 66.9123C6.34256 66.7766 5.77295 66.6184 5.24855 66.4376L5.57404 65.8273C5.26663 65.9177 4.9547 66.0126 4.63825 66.1121C4.3218 66.2206 4.00535 66.3291 3.6889 66.4376C4.23139 64.8101 4.69702 63.1827 5.08581 61.5552C5.48363 59.9187 5.78652 58.2596 5.99447 56.5779C5.34349 56.162 4.76031 55.7325 4.24495 55.2895C3.72959 54.8465 3.30464 54.408 2.97011 53.974C3.46739 54.1277 3.98275 54.2723 4.51619 54.408C5.05868 54.5345 5.61473 54.6476 6.18434 54.747C6.22955 54.1864 6.26119 53.6349 6.27927 53.0924C6.3064 52.5499 6.31996 52.0029 6.31996 51.4514V51.0039C5.76843 51.1847 5.22143 51.3791 4.67894 51.587C4.13645 51.795 3.61205 52.0255 3.10573 52.2787C3.24135 51.7724 3.34533 51.2796 3.41766 50.8004C3.48999 50.3212 3.52616 49.8511 3.52616 49.39C3.52616 48.6034 3.4267 47.8484 3.22779 47.1251C3.02888 46.4018 2.74859 45.7011 2.38694 45.023C3.43574 44.8602 4.38961 44.7291 5.24855 44.6297C6.10749 44.5212 6.90313 44.4353 7.63549 44.372C8.37689 44.3087 9.0776 44.2635 9.73762 44.2364C10.4067 44.2092 11.0667 44.1957 11.7177 44.1957C12.2692 44.1957 12.8976 44.2092 13.6028 44.2364C14.3081 44.2635 15.0359 44.3222 15.7863 44.4127C16.5458 44.5031 17.3008 44.6342 18.0512 44.806C18.8107 44.9777 19.525 45.2128 20.194 45.5112C20.8631 45.8096 21.4644 46.1803 21.9978 46.6233C22.5312 47.0573 22.9472 47.5817 23.2455 48.1965C23.4354 48.088 23.6298 47.9614 23.8287 47.8168C24.0366 47.6721 24.2401 47.5229 24.439 47.3692C24.4842 47.6133 24.5113 47.8574 24.5204 48.1016C24.5384 48.3457 24.5475 48.5808 24.5475 48.8068C24.5475 49.512 24.4616 50.2037 24.2898 50.8818C24.1271 51.5599 23.892 52.2109 23.5846 52.8348C23.2862 53.4586 22.9246 54.0553 22.4996 54.625C22.0747 55.1855 21.6 55.7009 21.0756 56.171C21.5729 56.4604 21.9888 56.7904 22.3233 57.1611C22.6578 57.5227 22.9336 57.898 23.1506 58.2867C23.3766 58.6755 23.5484 59.0553 23.6659 59.426C23.7835 59.7967 23.8649 60.1312 23.9101 60.4296C23.9643 60.7279 23.996 60.972 24.005 61.1619C24.014 61.3518 24.0186 61.4558 24.0186 61.4738ZM13.9419 59.0869C13.2728 59.0869 12.6309 59.0281 12.0161 58.9106C12.0161 59.3898 12.0206 59.8599 12.0296 60.3211C12.0387 60.7822 12.0522 61.2478 12.0703 61.718C12.5314 61.8626 12.9699 61.9621 13.3858 62.0163C13.8017 62.0615 14.1996 62.0841 14.5793 62.0841C15.0495 62.0841 15.5422 62.0299 16.0576 61.9214C16.582 61.8039 17.0612 61.6185 17.4952 61.3653C17.9382 61.1031 18.2999 60.7641 18.5801 60.3482C18.8695 59.9323 19.0141 59.4169 19.0141 58.8021C19.0141 58.6484 19.0006 58.4856 18.9734 58.3139C18.9463 58.1421 18.9056 57.9658 18.8514 57.7849C18.0829 58.2008 17.2827 58.5218 16.4509 58.7478C15.6281 58.9739 14.7918 59.0869 13.9419 59.0869ZM12.1246 49.6748C12.0974 50.5699 12.0748 51.4605 12.0567 52.3465C12.0477 53.2235 12.0341 54.1096 12.0161 55.0047C12.667 54.9052 13.2502 54.747 13.7656 54.53C14.29 54.304 14.7466 54.0011 15.1354 53.6214C15.5241 53.2416 15.8361 52.776 16.0711 52.2245C16.3153 51.6729 16.4825 51.0174 16.5729 50.2579L17.7935 50.0545C17.4048 49.8285 16.9708 49.6612 16.4916 49.5527C16.0124 49.4442 15.4925 49.39 14.9319 49.39C14.6968 49.39 14.4889 49.3945 14.3081 49.4035C14.1363 49.4126 13.9509 49.4307 13.752 49.4578C13.5621 49.4759 13.3406 49.503 13.0875 49.5392C12.8434 49.5753 12.5359 49.6205 12.1652 49.6748H12.1246ZM43.0734 49.2543C42.7569 49.5075 42.4586 49.7742 42.1783 50.0545C41.898 50.3258 41.6313 50.6151 41.3781 50.9225C42.228 51.0852 43.0327 51.3474 43.7922 51.7091C44.5517 52.0617 45.2117 52.5093 45.7723 53.0517C46.3328 53.5942 46.7758 54.2271 47.1013 54.9504C47.4359 55.6647 47.6031 56.4604 47.6031 57.3374C47.6031 58.3319 47.4359 59.2316 47.1013 60.0363C46.7758 60.8319 46.3193 61.5462 45.7316 62.1791C45.1529 62.8029 44.4658 63.3454 43.6701 63.8065C42.8745 64.2586 42.011 64.6338 41.0797 64.9322C40.1485 65.2215 39.1675 65.4385 38.1368 65.5832C37.106 65.7278 36.0663 65.8002 35.0175 65.8002C34.6468 65.8002 34.2625 65.7911 33.8647 65.773C33.4669 65.764 33.0781 65.7459 32.6983 65.7188C32.3276 65.6917 31.9795 65.651 31.6541 65.5967C31.3376 65.5515 31.0709 65.4928 30.8539 65.4204C31.107 65.2125 31.3466 65.0045 31.5727 64.7966C31.8078 64.5796 32.0202 64.3626 32.2101 64.1456C31.3512 63.9828 30.542 63.7387 29.7825 63.4132C29.032 63.0877 28.372 62.6718 27.8024 62.1655C27.2328 61.6501 26.7807 61.0489 26.4462 60.3617C26.1207 59.6656 25.958 58.8699 25.958 57.9748C25.958 56.926 26.1478 55.9812 26.5276 55.1403C26.9163 54.2904 27.4453 53.5355 28.1143 52.8754C28.7834 52.2154 29.57 51.6503 30.4741 51.1802C31.3783 50.71 32.3502 50.3212 33.39 50.0138C34.4298 49.7064 35.5102 49.4804 36.6314 49.3357C37.7615 49.1911 38.8827 49.1187 39.9948 49.1187C40.4559 49.1187 40.926 49.1323 41.4052 49.1594C41.8935 49.1775 42.4043 49.2091 42.9378 49.2543H43.0734ZM41.7172 56.388C41.7172 55.6195 41.5499 54.9911 41.2154 54.5029C40.8899 54.0147 40.4559 53.6259 39.9134 53.3366C39.8139 53.5716 39.719 53.8157 39.6286 54.0689C39.5382 54.313 39.4568 54.5662 39.3845 54.8284C38.7516 54.6476 38.2181 54.5255 37.7841 54.4622C37.3592 54.3989 37.0021 54.3673 36.7127 54.3673C36.1431 54.3673 35.569 54.4622 34.9903 54.6521C34.4117 54.842 33.8918 55.1177 33.4307 55.4794C32.9696 55.832 32.5898 56.266 32.2915 56.7813C32.0021 57.2877 31.8575 57.8618 31.8575 58.5037C31.8575 59.1185 32.0112 59.6836 32.3186 60.199C32.635 60.7053 33.0464 61.1755 33.5528 61.6095C33.6341 61.3292 33.6929 61.0444 33.7291 60.755C33.7743 60.4657 33.8059 60.1674 33.824 59.8599C34.4931 60.1674 35.0853 60.3798 35.6006 60.4974C36.116 60.6149 36.5681 60.6737 36.9569 60.6737C37.5536 60.6737 38.1368 60.5787 38.7064 60.3889C39.276 60.19 39.7823 59.9052 40.2253 59.5345C40.6774 59.1638 41.0391 58.7162 41.3103 58.1918C41.5815 57.6584 41.7172 57.0571 41.7172 56.388ZM66.4003 49.2543C66.0838 49.5075 65.7855 49.7742 65.5052 50.0545C65.2249 50.3258 64.9582 50.6151 64.705 50.9225C65.5549 51.0852 66.3596 51.3474 67.1191 51.7091C67.8786 52.0617 68.5386 52.5093 69.0991 53.0517C69.6597 53.5942 70.1027 54.2271 70.4282 54.9504C70.7628 55.6647 70.93 56.4604 70.93 57.3374C70.93 58.3319 70.7628 59.2316 70.4282 60.0363C70.1027 60.8319 69.6462 61.5462 69.0585 62.1791C68.4798 62.8029 67.7927 63.3454 66.997 63.8065C66.2014 64.2586 65.3379 64.6338 64.4066 64.9322C63.4754 65.2215 62.4944 65.4385 61.4637 65.5832C60.4329 65.7278 59.3932 65.8002 58.3444 65.8002C57.9737 65.8002 57.5894 65.7911 57.1916 65.773C56.7938 65.764 56.405 65.7459 56.0252 65.7188C55.6545 65.6917 55.3064 65.651 54.981 65.5967C54.6645 65.5515 54.3978 65.4928 54.1808 65.4204C54.4339 65.2125 54.6735 65.0045 54.8996 64.7966C55.1347 64.5796 55.3471 64.3626 55.537 64.1456C54.6781 63.9828 53.8689 63.7387 53.1094 63.4132C52.3589 63.0877 51.6989 62.6718 51.1293 62.1655C50.5597 61.6501 50.1076 61.0489 49.7731 60.3617C49.4476 59.6656 49.2848 58.8699 49.2848 57.9748C49.2848 56.926 49.4747 55.9812 49.8545 55.1403C50.2432 54.2904 50.7722 53.5355 51.4412 52.8754C52.1103 52.2154 52.8969 51.6503 53.801 51.1802C54.7052 50.71 55.6771 50.3212 56.7169 50.0138C57.7567 49.7064 58.8371 49.4804 59.9583 49.3357C61.0884 49.1911 62.2096 49.1187 63.3217 49.1187C63.7828 49.1187 64.2529 49.1323 64.7321 49.1594C65.2204 49.1775 65.7312 49.2091 66.2647 49.2543H66.4003ZM65.0441 56.388C65.0441 55.6195 64.8768 54.9911 64.5423 54.5029C64.2168 54.0147 63.7828 53.6259 63.2403 53.3366C63.1408 53.5716 63.0459 53.8157 62.9555 54.0689C62.8651 54.313 62.7837 54.5662 62.7114 54.8284C62.0785 54.6476 61.545 54.5255 61.111 54.4622C60.6861 54.3989 60.329 54.3673 60.0396 54.3673C59.47 54.3673 58.8959 54.4622 58.3172 54.6521C57.7386 54.842 57.2187 55.1177 56.7576 55.4794C56.2965 55.832 55.9167 56.266 55.6184 56.7813C55.329 57.2877 55.1844 57.8618 55.1844 58.5037C55.1844 59.1185 55.3381 59.6836 55.6455 60.199C55.9619 60.7053 56.3733 61.1755 56.8797 61.6095C56.961 61.3292 57.0198 61.0444 57.056 60.755C57.1012 60.4657 57.1328 60.1674 57.1509 59.8599C57.82 60.1674 58.4122 60.3798 58.9275 60.4974C59.4429 60.6149 59.895 60.6737 60.2838 60.6737C60.8805 60.6737 61.4637 60.5787 62.0333 60.3889C62.6029 60.19 63.1092 59.9052 63.5522 59.5345C64.0043 59.1638 64.366 58.7162 64.6372 58.1918C64.9084 57.6584 65.0441 57.0571 65.0441 56.388ZM80.5863 49.4985C80.2337 51.804 80.0302 54.1096 79.976 56.4152C81.3232 55.3211 82.5709 54.1051 83.7191 52.7669C84.8764 51.4198 85.9705 49.9596 87.0012 48.3864C87.8692 49.3086 88.8095 50.0952 89.8221 50.7462C90.8348 51.3972 91.9152 51.9442 93.0635 52.3872H93.1177C91.9423 53.2913 90.7082 54.1322 89.4152 54.9098C88.1223 55.6783 86.8023 56.3473 85.4551 56.917C86.3592 58.3003 87.39 59.5751 88.5473 60.7415C89.7136 61.9078 90.9613 63.0109 92.2904 64.0506H92.1684C89.7724 64.5027 87.4397 65.321 85.1703 66.5054C84.5555 65.0045 83.8186 63.6257 82.9597 62.3689C82.1098 61.1122 81.1062 59.982 79.9489 58.9784C79.967 59.982 80.0031 60.9856 80.0574 61.9892C80.1116 62.9928 80.1885 63.9964 80.2879 65C79.6008 65.0362 78.9317 65.0904 78.2807 65.1627C77.6297 65.2441 76.9788 65.3436 76.3278 65.4611C75.6858 65.5877 75.0394 65.7324 74.3884 65.8951C73.7374 66.0578 73.0638 66.2387 72.3676 66.4376C73.6696 62.6402 74.3206 58.7524 74.3206 54.7741C74.3206 53.8248 74.2754 52.8619 74.185 51.8854C74.1036 50.8999 73.9815 49.8827 73.8188 48.8339C74.6868 49.0961 75.496 49.2905 76.2464 49.4171C77.0059 49.5437 77.7428 49.607 78.457 49.607C78.7464 49.607 79.0538 49.6024 79.3793 49.5934C79.7138 49.5753 80.1161 49.5437 80.5863 49.4985ZM113.163 57.5815C113.19 57.7352 113.203 57.8889 113.203 58.0426C113.212 58.1963 113.217 58.35 113.217 58.5037C113.217 59.2632 113.081 59.9775 112.81 60.6466C112.548 61.3066 112.182 61.9169 111.711 62.4774C111.25 63.029 110.699 63.5262 110.057 63.9693C109.415 64.4123 108.723 64.783 107.982 65.0814C107.24 65.3888 106.463 65.6239 105.649 65.7866C104.835 65.9494 104.017 66.0307 103.194 66.0307C102.634 66.0307 102.064 66.0036 101.486 65.9494C100.916 65.8951 100.342 65.8635 99.7632 65.8544C99.1936 65.8454 98.6194 65.8815 98.0408 65.9629C97.4712 66.0443 96.9015 66.2161 96.3319 66.4783C96.0155 65.4114 95.681 64.453 95.3283 63.6031C94.9848 62.7442 94.6683 62.0118 94.379 61.406C94.0354 60.7008 93.6964 60.0769 93.3618 59.5345C94.4106 60.0227 95.4368 60.416 96.4404 60.7144C97.444 61.0037 98.3843 61.2252 99.2614 61.3789C100.147 61.5326 100.943 61.6321 101.648 61.6773C102.354 61.7225 102.932 61.7451 103.384 61.7451C103.818 61.7451 104.257 61.727 104.7 61.6908C105.152 61.6456 105.604 61.5733 106.056 61.4738C105.712 61.0941 105.31 60.7822 104.849 60.5381C104.388 60.2849 103.891 60.0679 103.357 59.8871C102.833 59.7062 102.281 59.5435 101.703 59.3988C101.133 59.2542 100.568 59.1005 100.007 58.9377C99.4467 58.7659 98.9042 58.5715 98.3798 58.3545C97.8554 58.1285 97.3762 57.8437 96.9422 57.5001C96.4088 57.0842 96.02 56.6096 95.7759 56.0761C95.5318 55.5427 95.3826 54.964 95.3283 54.3402C95.0209 54.4486 94.7497 54.5571 94.5146 54.6656C94.2795 54.7651 94.0806 54.851 93.9179 54.9233C93.728 55.0137 93.5607 55.0951 93.4161 55.1674C93.7144 54.3537 94.1258 53.6349 94.6502 53.0111C95.1837 52.3872 95.7804 51.8447 96.4404 51.3836C97.1005 50.9225 97.8012 50.5337 98.5426 50.2173C99.293 49.9008 100.034 49.6386 100.767 49.4307C102.485 48.9515 104.338 48.6802 106.327 48.6169C106.915 48.6079 107.557 48.5853 108.253 48.5491C108.85 48.5129 109.541 48.4587 110.328 48.3864C111.124 48.314 111.974 48.2055 112.878 48.0609C112.643 48.3954 112.448 48.7616 112.295 49.1594C112.15 49.5572 112.037 49.9641 111.956 50.38C111.874 50.7959 111.815 51.2073 111.779 51.6142C111.752 52.012 111.739 52.3827 111.739 52.7263C111.739 52.9433 111.743 53.1512 111.752 53.3501C111.761 53.549 111.775 53.7253 111.793 53.879C111.811 54.0599 111.833 54.2317 111.861 54.3944C110.333 53.7705 108.886 53.332 107.521 53.0789C106.155 52.8257 104.867 52.6991 103.655 52.6991C103.294 52.6991 102.946 52.7127 102.611 52.7398C102.277 52.7579 101.942 52.7805 101.608 52.8076C101.68 53.1602 101.816 53.4541 102.014 53.6892C102.222 53.9242 102.43 54.1141 102.638 54.2588C102.882 54.4215 103.149 54.5481 103.439 54.6385C104.053 54.8103 104.718 55.0228 105.432 55.2759C106.155 55.5291 106.874 55.8365 107.589 56.1982C108.312 56.5508 108.999 56.9712 109.65 57.4594C110.31 57.9386 110.889 58.4992 111.386 59.1412C111.693 58.9151 111.996 58.671 112.295 58.4088C112.593 58.1466 112.882 57.8708 113.163 57.5815Z" fill="url(#paint0_linear)"/>
<path d="M136.042 55.7235C136.069 55.9224 136.083 56.1168 136.083 56.3067C136.092 56.4965 136.096 56.6819 136.096 56.8627C136.096 57.8121 135.947 58.7026 135.649 59.5345C135.359 60.3663 134.957 61.1303 134.442 61.8265C133.926 62.5226 133.316 63.1465 132.611 63.698C131.914 64.2496 131.155 64.7152 130.332 65.0949C129.509 65.4747 128.646 65.764 127.742 65.9629C126.847 66.1709 125.947 66.2748 125.043 66.2748C124.193 66.2748 123.375 66.2387 122.588 66.1663C121.802 66.094 121.056 66.0578 120.351 66.0578C119.808 66.0578 119.297 66.094 118.818 66.1663C118.339 66.2477 117.896 66.4059 117.489 66.641C117.154 65.4023 116.797 64.2812 116.417 63.2776C116.047 62.265 115.703 61.4015 115.387 60.6872C115.016 59.8554 114.645 59.1095 114.275 58.4495C115.351 59.0101 116.427 59.4531 117.502 59.7786C118.587 60.1041 119.618 60.3572 120.595 60.5381C121.571 60.7098 122.462 60.8229 123.266 60.8771C124.071 60.9223 124.74 60.9449 125.274 60.9449C125.87 60.9449 126.472 60.9088 127.077 60.8364C127.683 60.7641 128.293 60.6511 128.908 60.4974C128.755 60.2894 128.596 60.1041 128.434 59.9413C128.271 59.7786 128.122 59.6475 127.986 59.548C127.823 59.4305 127.665 59.331 127.511 59.2496C127.249 59.1231 126.892 59.001 126.44 58.8835C125.997 58.7569 125.5 58.6213 124.948 58.4766C124.406 58.3319 123.822 58.1737 123.199 58.0019C122.584 57.8301 121.969 57.6312 121.354 57.4052C120.748 57.1792 120.165 56.9215 119.605 56.6322C119.053 56.3428 118.56 56.0128 118.126 55.6421C117.783 55.3438 117.498 55.0228 117.272 54.6792C117.046 54.3266 116.865 53.9695 116.729 53.6078C116.603 53.2371 116.508 52.8709 116.445 52.5093C116.39 52.1386 116.359 51.7859 116.35 51.4514C116.033 51.578 115.748 51.7001 115.495 51.8176C115.242 51.9351 115.025 52.0346 114.844 52.116L114.302 52.3872C114.627 51.4107 115.079 50.5473 115.658 49.7968C116.246 49.0464 116.901 48.3954 117.625 47.8439C118.357 47.2924 119.134 46.8267 119.957 46.447C120.789 46.0672 121.612 45.7553 122.426 45.5112C124.324 44.9416 126.381 44.6161 128.596 44.5347C129.283 44.5347 130.016 44.5076 130.793 44.4533C131.462 44.4081 132.226 44.3403 133.085 44.2499C133.944 44.1505 134.848 44.0103 135.798 43.8295C135.508 44.2635 135.273 44.7336 135.093 45.2399C134.921 45.7463 134.785 46.2571 134.686 46.7725C134.586 47.2878 134.518 47.7987 134.482 48.305C134.446 48.8023 134.428 49.2589 134.428 49.6748C134.428 49.9551 134.433 50.2082 134.442 50.4343C134.451 50.6603 134.464 50.8547 134.482 51.0174C134.5 51.2073 134.523 51.3791 134.55 51.5328C132.968 50.8185 131.426 50.3212 129.925 50.041C128.425 49.7516 126.973 49.607 125.572 49.607C125.093 49.607 124.636 49.625 124.202 49.6612C123.768 49.6883 123.334 49.729 122.9 49.7833C123 50.2173 123.176 50.5789 123.429 50.8682C123.691 51.1576 123.954 51.3926 124.216 51.5735C124.523 51.7814 124.853 51.9442 125.206 52.0617C125.893 52.2787 126.639 52.5454 127.444 52.8619C128.248 53.1693 129.053 53.5535 129.858 54.0147C130.662 54.4758 131.435 55.0183 132.177 55.6421C132.918 56.266 133.569 56.9893 134.13 57.8121C134.473 57.5227 134.808 57.2063 135.133 56.8627C135.459 56.5101 135.762 56.1304 136.042 55.7235ZM145.495 49.4985C145.142 51.804 144.939 54.1096 144.884 56.4152C146.232 55.3211 147.479 54.1051 148.628 52.7669C149.785 51.4198 150.879 49.9596 151.91 48.3864C152.778 49.3086 153.718 50.0952 154.731 50.7462C155.743 51.3972 156.824 51.9442 157.972 52.3872H158.026C156.851 53.2913 155.617 54.1322 154.324 54.9098C153.031 55.6783 151.711 56.3473 150.364 56.917C151.268 58.3003 152.298 59.5751 153.456 60.7415C154.622 61.9078 155.87 63.0109 157.199 64.0506H157.077C154.681 64.5027 152.348 65.321 150.079 66.5054C149.464 65.0045 148.727 63.6257 147.868 62.3689C147.018 61.1122 146.015 59.982 144.857 58.9784C144.875 59.982 144.912 60.9856 144.966 61.9892C145.02 62.9928 145.097 63.9964 145.196 65C144.509 65.0362 143.84 65.0904 143.189 65.1627C142.538 65.2441 141.887 65.3436 141.236 65.4611C140.594 65.5877 139.948 65.7324 139.297 65.8951C138.646 66.0578 137.972 66.2387 137.276 66.4376C138.578 62.6402 139.229 58.7524 139.229 54.7741C139.229 53.8248 139.184 52.8619 139.093 51.8854C139.012 50.8999 138.89 49.8827 138.727 48.8339C139.595 49.0961 140.404 49.2905 141.155 49.4171C141.914 49.5437 142.651 49.607 143.365 49.607C143.655 49.607 143.962 49.6024 144.288 49.5934C144.622 49.5753 145.025 49.5437 145.495 49.4985ZM182.072 49.2815C180.218 50.7191 178.469 52.2335 176.823 53.8248C175.187 55.4161 173.668 57.134 172.266 58.9784H172.321C172.239 59.4938 172.221 60.0272 172.266 60.5787C172.312 61.1303 172.402 61.6863 172.538 62.2469C172.673 62.7984 172.841 63.3454 173.039 63.8879C173.247 64.4213 173.469 64.9322 173.704 65.4204C172.637 65.1311 171.615 64.9096 170.639 64.7559C169.672 64.6022 168.74 64.5253 167.845 64.5253C167.248 64.5253 166.62 64.5615 165.96 64.6338C165.309 64.6971 164.613 64.792 163.871 64.9186C164.405 63.8969 164.848 62.8662 165.201 61.8265C165.553 60.7777 165.779 59.6882 165.879 58.558H165.906C164.929 56.8672 163.777 55.285 162.447 53.8112C161.127 52.3284 159.613 50.9587 157.904 49.7019H158.067C158.745 49.8014 159.405 49.8782 160.047 49.9325C160.698 49.9777 161.344 50.0003 161.986 50.0003C163.397 50.0003 164.834 49.8059 166.299 49.4171C167.05 51.5418 168.112 53.2913 169.486 54.6656C170.219 53.9695 170.856 53.1693 171.398 52.2651C171.95 51.361 172.398 50.3755 172.741 49.3086C173.473 49.4713 174.183 49.5934 174.87 49.6748C175.567 49.7471 176.236 49.7833 176.878 49.7833C177.664 49.7833 178.473 49.7426 179.305 49.6612C180.137 49.5708 181.059 49.4442 182.072 49.2815Z" fill="url(#paint1_linear)"/>
<path d="M136.042 55.7235C136.069 55.9224 136.083 56.1168 136.083 56.3067C136.092 56.4965 136.096 56.6819 136.096 56.8627C136.096 57.8121 135.947 58.7026 135.649 59.5345C135.359 60.3663 134.957 61.1303 134.442 61.8265C133.926 62.5226 133.316 63.1465 132.611 63.698C131.914 64.2496 131.155 64.7152 130.332 65.0949C129.509 65.4747 128.646 65.764 127.742 65.9629C126.847 66.1709 125.947 66.2748 125.043 66.2748C124.193 66.2748 123.375 66.2387 122.588 66.1663C121.802 66.094 121.056 66.0578 120.351 66.0578C119.808 66.0578 119.297 66.094 118.818 66.1663C118.339 66.2477 117.896 66.4059 117.489 66.641C117.154 65.4023 116.797 64.2812 116.417 63.2776C116.047 62.265 115.703 61.4015 115.387 60.6872C115.016 59.8554 114.645 59.1095 114.275 58.4495C115.351 59.0101 116.427 59.4531 117.502 59.7786C118.587 60.1041 119.618 60.3572 120.595 60.5381C121.571 60.7098 122.462 60.8229 123.266 60.8771C124.071 60.9223 124.74 60.9449 125.274 60.9449C125.87 60.9449 126.472 60.9088 127.077 60.8364C127.683 60.7641 128.293 60.6511 128.908 60.4974C128.755 60.2894 128.596 60.1041 128.434 59.9413C128.271 59.7786 128.122 59.6475 127.986 59.548C127.823 59.4305 127.665 59.331 127.511 59.2496C127.249 59.1231 126.892 59.001 126.44 58.8835C125.997 58.7569 125.5 58.6213 124.948 58.4766C124.406 58.3319 123.822 58.1737 123.199 58.0019C122.584 57.8301 121.969 57.6312 121.354 57.4052C120.748 57.1792 120.165 56.9215 119.605 56.6322C119.053 56.3428 118.56 56.0128 118.126 55.6421C117.783 55.3438 117.498 55.0228 117.272 54.6792C117.046 54.3266 116.865 53.9695 116.729 53.6078C116.603 53.2371 116.508 52.8709 116.445 52.5093C116.39 52.1386 116.359 51.7859 116.35 51.4514C116.033 51.578 115.748 51.7001 115.495 51.8176C115.242 51.9351 115.025 52.0346 114.844 52.116L114.302 52.3872C114.627 51.4107 115.079 50.5473 115.658 49.7968C116.246 49.0464 116.901 48.3954 117.625 47.8439C118.357 47.2924 119.134 46.8267 119.957 46.447C120.789 46.0672 121.612 45.7553 122.426 45.5112C124.324 44.9416 126.381 44.6161 128.596 44.5347C129.283 44.5347 130.016 44.5076 130.793 44.4533C131.462 44.4081 132.226 44.3403 133.085 44.2499C133.944 44.1505 134.848 44.0103 135.798 43.8295C135.508 44.2635 135.273 44.7336 135.093 45.2399C134.921 45.7463 134.785 46.2571 134.686 46.7725C134.586 47.2878 134.518 47.7987 134.482 48.305C134.446 48.8023 134.428 49.2589 134.428 49.6748C134.428 49.9551 134.433 50.2082 134.442 50.4343C134.451 50.6603 134.464 50.8547 134.482 51.0174C134.5 51.2073 134.523 51.3791 134.55 51.5328C132.968 50.8185 131.426 50.3212 129.925 50.041C128.425 49.7516 126.973 49.607 125.572 49.607C125.093 49.607 124.636 49.625 124.202 49.6612C123.768 49.6883 123.334 49.729 122.9 49.7833C123 50.2173 123.176 50.5789 123.429 50.8682C123.691 51.1576 123.954 51.3926 124.216 51.5735C124.523 51.7814 124.853 51.9442 125.206 52.0617C125.893 52.2787 126.639 52.5454 127.444 52.8619C128.248 53.1693 129.053 53.5535 129.858 54.0147C130.662 54.4758 131.435 55.0183 132.177 55.6421C132.918 56.266 133.569 56.9893 134.13 57.8121C134.473 57.5227 134.808 57.2063 135.133 56.8627C135.459 56.5101 135.762 56.1304 136.042 55.7235ZM145.495 49.4985C145.142 51.804 144.939 54.1096 144.884 56.4152C146.232 55.3211 147.479 54.1051 148.628 52.7669C149.785 51.4198 150.879 49.9596 151.91 48.3864C152.778 49.3086 153.718 50.0952 154.731 50.7462C155.743 51.3972 156.824 51.9442 157.972 52.3872H158.026C156.851 53.2913 155.617 54.1322 154.324 54.9098C153.031 55.6783 151.711 56.3473 150.364 56.917C151.268 58.3003 152.298 59.5751 153.456 60.7415C154.622 61.9078 155.87 63.0109 157.199 64.0506H157.077C154.681 64.5027 152.348 65.321 150.079 66.5054C149.464 65.0045 148.727 63.6257 147.868 62.3689C147.018 61.1122 146.015 59.982 144.857 58.9784C144.875 59.982 144.912 60.9856 144.966 61.9892C145.02 62.9928 145.097 63.9964 145.196 65C144.509 65.0362 143.84 65.0904 143.189 65.1627C142.538 65.2441 141.887 65.3436 141.236 65.4611C140.594 65.5877 139.948 65.7324 139.297 65.8951C138.646 66.0578 137.972 66.2387 137.276 66.4376C138.578 62.6402 139.229 58.7524 139.229 54.7741C139.229 53.8248 139.184 52.8619 139.093 51.8854C139.012 50.8999 138.89 49.8827 138.727 48.8339C139.595 49.0961 140.404 49.2905 141.155 49.4171C141.914 49.5437 142.651 49.607 143.365 49.607C143.655 49.607 143.962 49.6024 144.288 49.5934C144.622 49.5753 145.025 49.5437 145.495 49.4985ZM182.072 49.2815C180.218 50.7191 178.469 52.2335 176.823 53.8248C175.187 55.4161 173.668 57.134 172.266 58.9784H172.321C172.239 59.4938 172.221 60.0272 172.266 60.5787C172.312 61.1303 172.402 61.6863 172.538 62.2469C172.673 62.7984 172.841 63.3454 173.039 63.8879C173.247 64.4213 173.469 64.9322 173.704 65.4204C172.637 65.1311 171.615 64.9096 170.639 64.7559C169.672 64.6022 168.74 64.5253 167.845 64.5253C167.248 64.5253 166.62 64.5615 165.96 64.6338C165.309 64.6971 164.613 64.792 163.871 64.9186C164.405 63.8969 164.848 62.8662 165.201 61.8265C165.553 60.7777 165.779 59.6882 165.879 58.558H165.906C164.929 56.8672 163.777 55.285 162.447 53.8112C161.127 52.3284 159.613 50.9587 157.904 49.7019H158.067C158.745 49.8014 159.405 49.8782 160.047 49.9325C160.698 49.9777 161.344 50.0003 161.986 50.0003C163.397 50.0003 164.834 49.8059 166.299 49.4171C167.05 51.5418 168.112 53.2913 169.486 54.6656C170.219 53.9695 170.856 53.1693 171.398 52.2651C171.95 51.361 172.398 50.3755 172.741 49.3086C173.473 49.4713 174.183 49.5934 174.87 49.6748C175.567 49.7471 176.236 49.7833 176.878 49.7833C177.664 49.7833 178.473 49.7426 179.305 49.6612C180.137 49.5708 181.059 49.4442 182.072 49.2815Z" fill="url(#paint2_linear)"/>
<path d="M185.324 63.8397C185.324 64.2064 185.15 64.4977 184.804 64.7137C184.457 64.9247 183.978 65.0301 183.365 65.0301C183.053 65.0301 182.77 65.005 182.513 64.9548C182.262 64.8995 182.044 64.8217 181.858 64.7212C181.672 64.6208 181.529 64.5027 181.428 64.3671C181.328 64.2265 181.278 64.0682 181.278 63.8924C181.278 63.7116 181.33 63.5483 181.436 63.4027C181.541 63.252 181.687 63.1264 181.873 63.026C182.064 62.9205 182.287 62.8401 182.544 62.7848C182.805 62.7296 183.089 62.702 183.395 62.702C183.681 62.702 183.942 62.7296 184.179 62.7848C184.415 62.8351 184.616 62.9104 184.781 63.0109C184.952 63.1113 185.085 63.2319 185.181 63.3725C185.276 63.5132 185.324 63.6689 185.324 63.8397ZM190.545 56.0188C190.399 56.8577 190.292 57.7066 190.221 58.5655C190.151 59.4194 190.116 60.2834 190.116 61.1574C190.116 61.8154 190.133 62.4684 190.168 63.1164C190.209 63.7643 190.271 64.4023 190.357 65.0301C190.171 65.0301 189.983 65.0226 189.792 65.0075C189.601 64.9925 189.39 64.9849 189.159 64.9849C188.747 64.9849 188.322 65.01 187.885 65.0603C187.448 65.1105 186.981 65.1833 186.484 65.2788C186.625 64.5705 186.738 63.8447 186.823 63.1013C186.909 62.3579 186.951 61.6019 186.951 60.8334C186.951 60.1905 186.919 59.55 186.853 58.9121C186.788 58.2692 186.685 57.6287 186.544 56.9908C186.876 56.9556 187.197 56.9104 187.509 56.8552C187.82 56.7949 188.137 56.7246 188.458 56.6442C188.78 56.5638 189.111 56.4734 189.453 56.373C189.794 56.2675 190.158 56.1494 190.545 56.0188ZM204.1 56.697C203.477 57.4052 203.005 58.1712 202.683 58.995C202.362 59.8137 202.201 60.7003 202.201 61.6547C202.201 62.157 202.244 62.6643 202.329 63.1766C202.415 63.689 202.548 64.2089 202.728 64.7363C202.347 64.7463 201.95 64.7815 201.538 64.8418C201.186 64.897 200.797 64.9774 200.37 65.0829C199.943 65.1934 199.524 65.3466 199.112 65.5425C198.795 64.7187 198.406 63.9326 197.944 63.1842C197.482 62.4357 196.957 61.725 196.369 61.0519C196.43 62.4734 196.259 63.9427 195.857 65.4596C194.943 65.1733 194.104 65.0301 193.34 65.0301C193.094 65.0301 192.826 65.0452 192.534 65.0753C192.243 65.1055 191.932 65.1482 191.6 65.2034C192.228 64.4952 192.705 63.7292 193.032 62.9054C193.363 62.0816 193.529 61.18 193.529 60.2005C193.529 59.8841 193.509 59.5576 193.469 59.221C193.428 58.8795 193.366 58.5228 193.28 58.1511C192.969 57.915 192.655 57.689 192.338 57.473C192.027 57.252 191.708 57.036 191.381 56.825C191.844 56.8652 192.268 56.8778 192.655 56.8627C193.047 56.8476 193.426 56.8049 193.793 56.7346C194.164 56.6593 194.538 56.5563 194.915 56.4257C195.297 56.2901 195.714 56.1193 196.166 55.9134L199.361 61.1273C199.33 60.8861 199.31 60.645 199.3 60.4039C199.29 60.1628 199.285 59.9242 199.285 59.6882C199.285 58.9548 199.371 58.2365 199.541 57.5333C199.712 56.825 199.991 56.1243 200.378 55.4312C200.96 55.8129 201.556 56.1093 202.163 56.3202C202.771 56.5262 203.417 56.6517 204.1 56.697Z" fill="url(#paint3_linear)"/>
<path d="M185.324 63.8397C185.324 64.2064 185.15 64.4977 184.804 64.7137C184.457 64.9247 183.978 65.0301 183.365 65.0301C183.053 65.0301 182.77 65.005 182.513 64.9548C182.262 64.8995 182.044 64.8217 181.858 64.7212C181.672 64.6208 181.529 64.5027 181.428 64.3671C181.328 64.2265 181.278 64.0682 181.278 63.8924C181.278 63.7116 181.33 63.5483 181.436 63.4027C181.541 63.252 181.687 63.1264 181.873 63.026C182.064 62.9205 182.287 62.8401 182.544 62.7848C182.805 62.7296 183.089 62.702 183.395 62.702C183.681 62.702 183.942 62.7296 184.179 62.7848C184.415 62.8351 184.616 62.9104 184.781 63.0109C184.952 63.1113 185.085 63.2319 185.181 63.3725C185.276 63.5132 185.324 63.6689 185.324 63.8397ZM190.545 56.0188C190.399 56.8577 190.292 57.7066 190.221 58.5655C190.151 59.4194 190.116 60.2834 190.116 61.1574C190.116 61.8154 190.133 62.4684 190.168 63.1164C190.209 63.7643 190.271 64.4023 190.357 65.0301C190.171 65.0301 189.983 65.0226 189.792 65.0075C189.601 64.9925 189.39 64.9849 189.159 64.9849C188.747 64.9849 188.322 65.01 187.885 65.0603C187.448 65.1105 186.981 65.1833 186.484 65.2788C186.625 64.5705 186.738 63.8447 186.823 63.1013C186.909 62.3579 186.951 61.6019 186.951 60.8334C186.951 60.1905 186.919 59.55 186.853 58.9121C186.788 58.2692 186.685 57.6287 186.544 56.9908C186.876 56.9556 187.197 56.9104 187.509 56.8552C187.82 56.7949 188.137 56.7246 188.458 56.6442C188.78 56.5638 189.111 56.4734 189.453 56.373C189.794 56.2675 190.158 56.1494 190.545 56.0188ZM204.1 56.697C203.477 57.4052 203.005 58.1712 202.683 58.995C202.362 59.8137 202.201 60.7003 202.201 61.6547C202.201 62.157 202.244 62.6643 202.329 63.1766C202.415 63.689 202.548 64.2089 202.728 64.7363C202.347 64.7463 201.95 64.7815 201.538 64.8418C201.186 64.897 200.797 64.9774 200.37 65.0829C199.943 65.1934 199.524 65.3466 199.112 65.5425C198.795 64.7187 198.406 63.9326 197.944 63.1842C197.482 62.4357 196.957 61.725 196.369 61.0519C196.43 62.4734 196.259 63.9427 195.857 65.4596C194.943 65.1733 194.104 65.0301 193.34 65.0301C193.094 65.0301 192.826 65.0452 192.534 65.0753C192.243 65.1055 191.932 65.1482 191.6 65.2034C192.228 64.4952 192.705 63.7292 193.032 62.9054C193.363 62.0816 193.529 61.18 193.529 60.2005C193.529 59.8841 193.509 59.5576 193.469 59.221C193.428 58.8795 193.366 58.5228 193.28 58.1511C192.969 57.915 192.655 57.689 192.338 57.473C192.027 57.252 191.708 57.036 191.381 56.825C191.844 56.8652 192.268 56.8778 192.655 56.8627C193.047 56.8476 193.426 56.8049 193.793 56.7346C194.164 56.6593 194.538 56.5563 194.915 56.4257C195.297 56.2901 195.714 56.1193 196.166 55.9134L199.361 61.1273C199.33 60.8861 199.31 60.645 199.3 60.4039C199.29 60.1628 199.285 59.9242 199.285 59.6882C199.285 58.9548 199.371 58.2365 199.541 57.5333C199.712 56.825 199.991 56.1243 200.378 55.4312C200.96 55.8129 201.556 56.1093 202.163 56.3202C202.771 56.5262 203.417 56.6517 204.1 56.697Z" fill="url(#paint4_linear)"/>
</g>
<path d="M29.0021 7.94567L23.4094 4.50122L18 18.0494L23.4094 22.0679M29.0021 7.94567L39.3625 4.50122L45.4136 7.94567M29.0021 7.94567L23.4094 22.0679M23.4094 22.0679L33.1279 31.7123L45.0469 35.5012L52.565 26.6605M52.565 26.6605L55.5906 22.0679M52.565 26.6605L44.4968 19.542C43.9467 20.1543 42.1497 21.6546 39.3625 22.7568C36.5753 23.859 34.2893 20.6901 33.4947 18.9679L41.838 8.29011L45.4136 7.94567M55.5906 22.0679L61 18.3938L55.5906 4.96048L49.9062 8.29011M55.5906 22.0679L49.9062 8.29011M49.9062 8.29011L45.4136 7.94567" stroke="black" stroke-width="2" stroke-linecap="round" stroke-linejoin="round"/>
<defs>
<filter id="filter0_d" x="0.0723562" y="41.5149" width="207.885" height="29.9196" filterUnits="userSpaceOnUse" color-interpolation-filters="sRGB">
<feFlood flood-opacity="0" result="BackgroundImageFix"/>
<feColorMatrix in="SourceAlpha" type="matrix" values="0 0 0 0 0 0 0 0 0 0 0 0 0 0 0 0 0 0 127 0" result="hardAlpha"/>
<feOffset dx="0.771536" dy="0.771536"/>
<feGaussianBlur stdDeviation="1.54307"/>
<feColorMatrix type="matrix" values="0 0 0 0 0.549066 0 0 0 0 0.489757 0 0 0 0 0.645833 0 0 0 0.71 0"/>
<feBlend mode="normal" in2="BackgroundImageFix" result="effect1_dropShadow"/>
<feBlend mode="normal" in="SourceGraphic" in2="effect1_dropShadow" result="shape"/>
</filter>
<linearGradient id="paint0_linear" x1="103" y1="37" x2="103" y2="74.0337" gradientUnits="userSpaceOnUse">
<stop stop-color="#5054FF"/>
<stop offset="1" stop-color="#711FF7"/>
</linearGradient>
<linearGradient id="paint1_linear" x1="103" y1="37" x2="103" y2="74.0337" gradientUnits="userSpaceOnUse">
<stop stop-color="#5054FF"/>
<stop offset="1" stop-color="#711FF7"/>
</linearGradient>
<linearGradient id="paint2_linear" x1="103" y1="37" x2="103" y2="74.0337" gradientUnits="userSpaceOnUse">
<stop stop-color="#D10000"/>
<stop offset="0.107292" stop-color="#F86C6C"/>
<stop offset="1" stop-color="#CA0808"/>
</linearGradient>
<linearGradient id="paint3_linear" x1="103" y1="37" x2="103" y2="74.0337" gradientUnits="userSpaceOnUse">
<stop stop-color="#5054FF"/>
<stop offset="1" stop-color="#711FF7"/>
</linearGradient>
<linearGradient id="paint4_linear" x1="103" y1="37" x2="103" y2="74.0337" gradientUnits="userSpaceOnUse">
<stop/>
<stop offset="1" stop-opacity="0.29"/>
</linearGradient>
</defs>
</svg>
