<svg width="403" height="269" viewBox="0 0 403 269" fill="none" xmlns="http://www.w3.org/2000/svg">
<g filter="url(#filter0_d)">
<path d="M52.1028 210.34H48.9577H48.2063C46.1281 210.34 45.0891 209.45 45.0891 207.668C45.0891 206.555 45.5158 205.618 46.3694 204.857C47.2229 204.078 48.2619 203.688 49.4865 203.688H50.238H61.5378C65.1931 203.688 68.0134 204.496 69.9987 206.11C71.9841 207.706 72.9768 209.988 72.9768 212.957C72.9768 215.517 72.2253 217.818 70.7224 219.859C69.238 221.9 67.2434 223.356 64.7385 224.229C68.134 225.88 69.8318 228.719 69.8318 232.745C69.8318 235.324 69.1267 237.857 67.7165 240.343C66.3249 242.811 64.4787 244.787 62.1779 246.271C59.0793 248.275 54.4035 249.277 48.1506 249.277H44.0593L43.7253 250.057C42.4265 252.933 41.406 254.964 40.6638 256.152C39.9216 257.339 38.966 258.471 37.7971 259.547C34.6985 262.386 31.1638 263.806 27.1931 263.806C23.946 263.806 21.2649 262.841 19.1496 260.911C17.0158 258.981 15.9489 256.523 15.9489 253.536C15.9489 251.625 16.4035 249.843 17.3127 248.192C18.2219 246.559 19.4558 245.288 21.0144 244.379C23.0368 243.21 25.7829 242.625 29.2527 242.625H38.966L52.1028 210.34ZM55.6374 220.777L57.3073 220.75C59.905 220.75 61.8718 220.146 63.2077 218.94C63.9128 218.31 64.4973 217.493 64.9612 216.491C65.4436 215.489 65.6848 214.562 65.6848 213.708C65.6848 212.168 65.0075 211.147 63.653 210.646C63.115 210.442 62.0017 210.34 60.3132 210.34H59.8957L55.6374 220.777ZM46.7868 242.625H49.0412C53.0119 242.625 56.0271 241.939 58.0866 240.566C59.404 239.694 60.4709 238.497 61.2873 236.976C62.1223 235.454 62.5398 233.923 62.5398 232.383C62.5398 230.565 61.9924 229.285 60.8977 228.542C59.8215 227.8 57.9382 227.429 55.2478 227.429H52.9377L46.7868 242.625ZM36.2663 249.277H29.03C25.3933 249.277 23.5749 250.576 23.5749 253.174C23.5749 254.213 23.9646 255.094 24.7439 255.818C25.5417 256.542 26.5066 256.903 27.6384 256.903C29.3269 256.903 30.9319 256.226 32.4533 254.872C33.9748 253.536 35.2458 251.671 36.2663 249.277ZM85.8073 219.998C88.4978 219.998 90.7058 220.852 92.4314 222.559C94.1755 224.266 95.0476 226.437 95.0476 229.071C95.0476 231.057 94.593 233.033 93.6838 235C92.7746 236.948 91.5964 238.506 90.1491 239.675C89.1843 240.436 88.1823 240.965 87.1433 241.262C86.1228 241.54 84.6848 241.679 82.8293 241.679C79.8049 241.679 77.7639 241.317 76.7063 240.594C74.2199 238.887 72.9768 236.363 72.9768 233.023C72.9768 229.498 74.2478 226.446 76.7898 223.867C79.3318 221.288 82.3376 219.998 85.8073 219.998ZM85.1394 225.926C83.7663 225.926 82.5139 226.604 81.382 227.958C80.2502 229.312 79.6843 230.806 79.6843 232.439C79.6843 234.591 80.8904 235.667 83.3025 235.667C84.7126 235.667 85.7981 235.231 86.5588 234.359C87.8205 232.931 88.4514 231.298 88.4514 229.461C88.4514 228.403 88.1452 227.55 87.5329 226.9C86.9206 226.251 86.1228 225.926 85.1394 225.926ZM109.409 219.998C112.099 219.998 114.307 220.852 116.033 222.559C117.777 224.266 118.649 226.437 118.649 229.071C118.649 231.057 118.195 233.033 117.285 235C116.376 236.948 115.198 238.506 113.751 239.675C112.786 240.436 111.784 240.965 110.745 241.262C109.724 241.54 108.286 241.679 106.431 241.679C103.406 241.679 101.365 241.317 100.308 240.594C97.8215 238.887 96.5783 236.363 96.5783 233.023C96.5783 229.498 97.8493 226.446 100.391 223.867C102.933 221.288 105.939 219.998 109.409 219.998ZM108.741 225.926C107.368 225.926 106.115 226.604 104.984 227.958C103.852 229.312 103.286 230.806 103.286 232.439C103.286 234.591 104.492 235.667 106.904 235.667C108.314 235.667 109.4 235.231 110.16 234.359C111.422 232.931 112.053 231.298 112.053 229.461C112.053 228.403 111.747 227.55 111.134 226.9C110.522 226.251 109.724 225.926 108.741 225.926ZM137.102 229.906L141.416 236.669C141.954 237.504 142.223 238.191 142.223 238.729C142.223 239.583 141.861 240.353 141.137 241.039C140.432 241.726 139.634 242.069 138.744 242.069C137.965 242.069 137.287 241.651 136.712 240.816L136.378 240.315L129.921 230.658L126.804 238.367C125.802 240.835 124.336 242.069 122.406 242.069C121.609 242.069 120.931 241.828 120.375 241.345C119.837 240.844 119.568 240.241 119.568 239.536C119.568 238.998 119.716 238.376 120.013 237.671L120.319 236.92L132.231 207.557L132.537 206.806C133.391 204.728 134.755 203.688 136.629 203.688C137.408 203.688 138.076 203.948 138.633 204.468C139.189 204.987 139.467 205.609 139.467 206.333C139.467 206.889 139.319 207.529 139.022 208.253L138.716 209.004L131.619 226.483L137.881 221.835C139.18 220.87 140.293 220.388 141.221 220.388C142 220.388 142.65 220.638 143.169 221.139C143.689 221.64 143.948 222.262 143.948 223.004C143.948 224.247 143.262 225.379 141.889 226.399L141.249 226.873L137.102 229.906ZM153.94 227.986L153.411 229.266C152.595 231.103 151.435 232.021 149.932 232.021C149.172 232.021 148.485 231.762 147.873 231.242C147.279 230.704 146.982 230.092 146.982 229.405C146.982 228.756 147.251 227.893 147.789 226.817L151.491 219.302C152.4 217.502 153.532 216.603 154.886 216.603C155.61 216.603 156.232 216.844 156.751 217.326C157.271 217.79 157.53 218.347 157.53 218.996C157.53 219.163 157.475 219.525 157.363 220.082C157.289 220.49 157.252 220.852 157.252 221.167C157.252 222.336 157.688 223.533 158.56 224.757L160.147 226.956C161.761 229.201 162.568 231.372 162.568 233.469C162.568 235.807 161.696 237.764 159.952 239.341C158.208 240.9 156.037 241.679 153.439 241.679H147.622C145.266 241.679 144.088 240.863 144.088 239.23C144.088 238.098 144.505 237.217 145.34 236.586C146.175 235.937 147.325 235.612 148.791 235.612H152.02C154.599 235.612 155.888 234.675 155.888 232.801C155.888 232.114 155.647 231.307 155.165 230.379L153.94 227.986ZM189.009 222.67L191.569 225.898L193.044 227.68C195.902 231.205 197.33 234.935 197.33 238.868C197.33 242.69 196.069 246.04 193.545 248.916C190.094 252.868 185.576 254.844 179.991 254.844C175.668 254.844 172.124 253.508 169.359 250.836C166.594 248.183 165.212 244.778 165.212 240.622C165.212 235.538 167.364 231.298 171.669 227.902C173.951 226.103 176.057 225.203 177.987 225.203C178.989 225.203 179.805 225.49 180.436 226.065C181.067 226.641 181.383 227.383 181.383 228.292C181.383 229.517 180.659 230.574 179.212 231.465L176.985 232.829C175.705 233.626 174.638 234.74 173.784 236.168C172.931 237.597 172.504 239.007 172.504 240.399C172.504 242.607 173.246 244.425 174.731 245.854C176.234 247.301 178.135 248.025 180.436 248.025C182.978 248.025 185.186 247.069 187.06 245.158C188.934 243.266 189.871 241.03 189.871 238.451C189.871 236.818 189.491 235.333 188.73 233.998C187.969 232.662 186.327 230.593 183.804 227.791C182.041 225.843 180.78 224.136 180.019 222.67H172.504C169.944 222.67 168.663 221.789 168.663 220.026C168.663 218.746 169.109 217.762 169.999 217.076C170.908 216.371 172.179 216.018 173.812 216.018H178.572C178.943 212.344 180.622 209.311 183.609 206.917C186.596 204.505 190.177 203.299 194.352 203.299C197.488 203.299 200.039 204.162 202.006 205.887C203.991 207.613 204.984 209.849 204.984 212.595C204.984 216.25 203.416 219.052 200.28 221C198.499 222.113 195.67 222.67 191.792 222.67H189.009ZM185.669 216.018H192.348C196.115 216.018 197.998 214.923 197.998 212.734C197.998 211.88 197.609 211.194 196.829 210.674C196.069 210.155 195.048 209.895 193.768 209.895C191.764 209.895 189.936 210.517 188.285 211.76C186.652 213.003 185.78 214.422 185.669 216.018ZM209.354 233.524C209.354 234.916 210.402 235.612 212.499 235.612H220.765C223.103 235.612 224.272 236.438 224.272 238.089C224.272 239.221 223.854 240.102 223.019 240.733C222.203 241.364 221.052 241.679 219.568 241.679H211.692C208.76 241.679 206.524 240.956 204.984 239.508C203.463 238.061 202.702 235.946 202.702 233.163C202.702 229.582 203.908 226.492 206.32 223.895C208.751 221.297 211.636 219.998 214.976 219.998C217.406 219.998 219.355 220.638 220.821 221.918C222.305 223.18 223.047 224.85 223.047 226.928C223.047 229.433 222.027 231.289 219.986 232.495C218.854 233.181 217.165 233.524 214.92 233.524H209.354ZM210.69 228.459H213.751C215.737 228.459 216.701 228.023 216.646 227.151C216.59 226.167 215.95 225.676 214.725 225.676C213.018 225.676 211.673 226.604 210.69 228.459ZM244.339 235.612H247.4C249.738 235.612 250.907 236.428 250.907 238.061C250.907 239.193 250.489 240.083 249.655 240.733C248.82 241.364 247.669 241.679 246.203 241.679H242.641C241.045 241.679 239.96 241.058 239.384 239.814C237.993 241.058 236.648 241.679 235.349 241.679H232.176C230.135 241.679 228.484 240.956 227.222 239.508C225.979 238.042 225.357 236.131 225.357 233.775C225.357 230.212 226.582 227.03 229.031 224.229C231.499 221.408 234.282 219.998 237.381 219.998C239.756 219.998 241.49 220.824 242.585 222.475C243.513 221.083 244.728 220.388 246.231 220.388C247.048 220.388 247.725 220.647 248.263 221.167C248.82 221.687 249.098 222.327 249.098 223.087C249.098 223.607 248.949 224.229 248.653 224.952L248.346 225.704L244.339 235.612ZM234.236 235.751H234.931C236.453 235.751 237.464 235.129 237.965 233.886L239.913 229.071C240.173 228.44 240.303 227.912 240.303 227.485C240.303 226.984 240.052 226.548 239.551 226.177C239.069 225.806 238.485 225.62 237.798 225.62C236.444 225.62 235.126 226.409 233.846 227.986C232.566 229.563 231.926 231.196 231.926 232.884C231.926 234.795 232.696 235.751 234.236 235.751ZM258.95 226.483L258.004 228.821C257.151 230.899 256.037 231.938 254.664 231.938C253.829 231.938 253.134 231.688 252.577 231.187C252.02 230.686 251.742 230.064 251.742 229.322C251.742 228.895 251.946 228.171 252.354 227.151L255.499 219.386C256.26 217.512 257.336 216.575 258.728 216.575C260.101 216.575 260.945 217.224 261.26 218.523L261.483 219.386C261.594 219.831 261.761 220.109 261.984 220.221C262.207 220.332 262.754 220.388 263.626 220.388H270.139C272.57 220.388 273.785 221.241 273.785 222.948C273.785 225.305 272.245 226.483 269.165 226.483L268.859 226.761C265.908 229.582 264.433 231.762 264.433 233.302C264.433 234.842 265.287 235.612 266.994 235.612H270.501C272.857 235.612 274.035 236.428 274.035 238.061C274.035 239.211 273.618 240.102 272.783 240.733C271.967 241.364 270.816 241.679 269.332 241.679H263.877C262.021 241.679 260.5 241.039 259.312 239.759C258.143 238.479 257.559 236.818 257.559 234.777C257.559 233.478 257.874 232.216 258.505 230.992C259.136 229.767 260.249 228.264 261.845 226.483H258.95ZM291.208 241.679H283.136C280.817 241.679 278.925 240.863 277.459 239.23C276.011 237.597 275.288 235.482 275.288 232.884C275.288 229.415 276.485 226.399 278.878 223.839C281.272 221.278 284.083 219.998 287.311 219.998C289.501 219.998 291.282 220.61 292.655 221.835C294.028 223.06 294.715 224.655 294.715 226.622C294.715 227.995 294.371 229.127 293.685 230.018C292.998 230.89 292.117 231.326 291.041 231.326C289.334 231.326 288.48 230.528 288.48 228.932C288.48 228.691 288.48 228.487 288.48 228.32C288.499 228.116 288.508 227.921 288.508 227.735C288.508 226.437 287.868 225.787 286.588 225.787C285.382 225.787 284.278 226.427 283.276 227.708C282.292 228.988 281.801 230.417 281.801 231.994C281.801 233.311 282.199 234.248 282.997 234.805C283.814 235.343 285.187 235.612 287.116 235.612H292.377C294.733 235.612 295.911 236.438 295.911 238.089C295.911 239.202 295.485 240.083 294.631 240.733C293.796 241.364 292.655 241.679 291.208 241.679ZM310.356 221.584C312.304 220.527 313.909 219.998 315.171 219.998C316.952 219.998 318.409 220.499 319.541 221.501C320.691 222.484 321.266 223.746 321.266 225.286C321.266 226.214 321.044 227.225 320.598 228.32L317.676 235.612H320.877C323.215 235.612 324.384 236.438 324.384 238.089C324.384 239.221 323.966 240.102 323.131 240.733C322.315 241.364 321.164 241.679 319.68 241.679H314.086C312.898 241.679 311.896 241.345 311.08 240.677C310.282 239.991 309.883 239.156 309.883 238.172C309.883 237.504 310.096 236.651 310.523 235.612L313.084 229.322C313.399 228.524 313.557 227.921 313.557 227.513C313.557 226.455 312.852 225.926 311.442 225.926C309.549 225.926 307.953 227.541 306.655 230.769L303.537 238.423C302.554 240.854 301.097 242.069 299.168 242.069C298.407 242.069 297.758 241.828 297.219 241.345C296.681 240.863 296.412 240.278 296.412 239.592C296.412 239.072 296.551 238.46 296.83 237.755L297.136 237.003L309.243 207.14C310.301 204.579 311.748 203.299 313.585 203.299C314.345 203.299 314.995 203.559 315.533 204.078C316.09 204.579 316.368 205.191 316.368 205.915C316.368 206.509 316.127 207.39 315.644 208.559L310.356 221.584ZM330.924 234.666C331.982 234.666 332.891 235.046 333.652 235.807C334.412 236.567 334.793 237.477 334.793 238.534C334.793 239.61 334.412 240.529 333.652 241.29C332.891 242.05 331.982 242.431 330.924 242.431C329.848 242.431 328.929 242.05 328.169 241.29C327.408 240.529 327.028 239.61 327.028 238.534C327.028 237.477 327.408 236.567 328.169 235.807C328.929 235.046 329.848 234.666 330.924 234.666ZM347.456 235.612H350.601C352.939 235.612 354.108 236.438 354.108 238.089C354.108 239.221 353.691 240.102 352.856 240.733C352.039 241.364 350.889 241.679 349.405 241.679H344.979C343.346 241.679 342.057 241.345 341.111 240.677C340.183 240.009 339.719 239.1 339.719 237.95C339.719 237.337 339.914 236.558 340.303 235.612L344.896 224.312L345.202 223.533C346.055 221.436 347.428 220.388 349.321 220.388C350.1 220.388 350.768 220.647 351.325 221.167C351.9 221.687 352.188 222.308 352.188 223.032C352.188 223.625 351.937 224.535 351.436 225.759L347.456 235.612ZM351.13 211.509C352.206 211.509 353.115 211.89 353.858 212.65C354.618 213.393 354.999 214.302 354.999 215.378C354.999 216.454 354.618 217.373 353.858 218.133C353.115 218.875 352.206 219.247 351.13 219.247C350.054 219.247 349.135 218.875 348.375 218.133C347.633 217.373 347.261 216.454 347.261 215.378C347.261 214.302 347.633 213.393 348.375 212.65C349.135 211.89 350.054 211.509 351.13 211.509ZM375.817 235.612H379.157C381.513 235.612 382.692 236.438 382.692 238.089C382.692 239.221 382.274 240.102 381.439 240.733C380.604 241.364 379.454 241.679 377.988 241.679H372.171C371.039 241.679 370.084 241.336 369.304 240.649C368.544 239.963 368.163 239.1 368.163 238.061C368.163 237.43 368.423 236.484 368.943 235.222L371.392 229.155C371.652 228.524 371.791 228.014 371.809 227.624C371.828 227.179 371.642 226.798 371.253 226.483C370.882 226.167 370.399 226.01 369.805 226.01C367.894 226.01 366.354 227.448 365.185 230.324L361.901 238.395C360.918 240.844 359.452 242.069 357.504 242.069C356.706 242.069 356.029 241.828 355.472 241.345C354.915 240.863 354.637 240.269 354.637 239.564C354.637 239.044 354.785 238.423 355.082 237.699L355.388 236.948L361.01 223.087C361.734 221.288 362.968 220.388 364.712 220.388C366.141 220.388 367.161 221.019 367.774 222.28C369.759 220.759 371.652 219.998 373.451 219.998C375.196 219.998 376.634 220.499 377.765 221.501C378.897 222.503 379.463 223.774 379.463 225.314C379.463 226.167 379.259 227.104 378.851 228.125L375.817 235.612Z" fill="url(#paint0_linear)"/>
</g>
<g filter="url(#filter1_d)">
<path d="M154.772 37.3044C156.061 39.2239 161.609 42.487 173.491 40.1836C174.78 38.744 178.13 36.0087 181.222 36.5846C185.088 37.3044 208.08 45.9421 209.911 47.3817C211.376 48.5334 219.338 44.1826 223.136 41.8632C226.391 45.5422 232.983 55.1557 233.309 64.1773C228.968 67.5364 220.328 74.5425 220.491 75.6942C220.694 77.1339 220.491 86.9713 215.608 84.5719C215.743 87.931 214.428 93.9774 208.08 91.2901C209.029 93.4496 208.283 97.0486 200.551 96.5687C200.755 99.6879 199.941 100.648 196.889 99.6879L194.244 106.166C192.752 106.566 189.564 107.126 188.751 106.166C187.937 105.206 187.462 103.847 187.326 103.287C186.784 103.847 185.536 105.206 184.885 106.166C184.071 107.366 180.409 106.886 179.188 103.287C178.211 100.408 178.761 98.4882 178.761 98.4882C178.761 98.4882 169.381 100.6 170.846 92.7297C166.98 93.6095 160.062 92.4418 163.318 80.7329C159.249 74.8945 149.727 62.7377 144.192 60.8182C144.26 53.78 146.471 39.2239 154.772 37.3044Z" fill="#5054FF" fill-opacity="0.81"/>
<path d="M173.491 40.1836C161.609 42.487 156.061 39.2239 154.772 37.3044C146.471 39.2239 144.26 53.78 144.192 60.8182C149.727 62.7377 159.249 74.8945 163.318 80.7329M173.491 40.1836C174.78 38.744 178.13 36.0087 181.222 36.5846C185.088 37.3044 208.08 45.9421 209.911 47.3817C211.376 48.5334 219.338 44.1826 223.136 41.8632C226.391 45.5422 232.983 55.1557 233.309 64.1773C228.968 67.5364 220.328 74.5425 220.491 75.6942M173.491 40.1836L168.404 50.5009C167.93 54.1799 168.933 60.6262 176.746 56.9792C178.577 54.2599 183.583 47.9576 184.885 47.3817C186.513 46.6619 202.993 54.0999 220.491 75.6942M220.491 75.6942C220.694 77.1339 220.491 86.9713 215.608 84.5719M215.608 84.5719C215.743 87.931 214.428 93.9774 208.08 91.2901M215.608 84.5719L196.889 69.2159M208.08 91.2901C209.029 93.4496 208.283 97.0486 200.551 96.5687M208.08 91.2901L189.768 78.8134M200.551 96.5687C200.755 99.6879 199.941 100.648 196.889 99.6879M200.551 96.5687C194.433 92.6333 184.885 86.4914 184.885 86.4914M196.889 99.6879C195.856 102.218 194.244 106.166 194.244 106.166C192.752 106.566 189.564 107.126 188.751 106.166C187.937 105.206 187.462 103.847 187.326 103.287M196.889 99.6879C194.244 94.1694 190.446 94.6492 188.751 95.3691M187.326 103.287C186.784 103.847 185.536 105.206 184.885 106.166C184.071 107.366 180.409 106.886 179.188 103.287C178.211 100.408 178.761 98.4882 178.761 98.4882M187.326 103.287L188.751 95.3691M178.761 98.4882C178.761 98.4882 169.381 100.6 170.846 92.7297M178.761 98.4882L181.222 92.7297M170.846 92.7297C166.98 93.6095 160.062 92.4418 163.318 80.7329M170.846 92.7297L172.677 88.6508M163.318 80.7329C166.166 79.6932 172.026 79.8212 172.677 88.6508M188.751 95.3691C185.495 90.1864 182.375 91.4501 181.222 92.7297M181.222 92.7297C178.761 86.4914 174.373 87.6911 172.677 88.6508" stroke="black" stroke-width="0.5"/>
</g>
<path fill-rule="evenodd" clip-rule="evenodd" d="M160.749 111.605C155.719 111.958 150.325 112.932 146.493 114.18C145.37 114.546 143.618 115.036 142.599 115.271C140.84 115.675 136.374 116.31 134.519 116.419C133.676 116.469 133.648 116.497 132.845 118.094C132.396 118.987 131.152 121.411 130.082 123.48C124.613 134.048 121.556 140.186 121.71 140.29C122.085 140.544 130.316 140.406 133.1 140.099C134.631 139.931 136.671 139.71 137.633 139.609C139.342 139.429 145.107 138.455 150.433 137.445C166.849 134.334 167.346 134.265 173.08 134.273C177.194 134.28 177.879 134.324 180.165 134.736C181.556 134.987 183.693 135.528 184.912 135.938C187.242 136.722 187.438 136.609 185.33 135.695C182.085 134.288 177.928 133.644 172.062 133.639C167.95 133.636 165.034 133.82 160.681 134.358C154.645 135.104 151.677 135.681 141.197 138.146C139.805 138.473 138.154 138.797 137.528 138.866C136.902 138.935 136.275 139.053 136.136 139.128C135.997 139.204 134.977 139.316 133.87 139.377C132.763 139.439 131.762 139.529 131.647 139.577C131.413 139.674 123.118 139.708 122.995 139.612C122.91 139.545 133.391 118.859 133.735 118.414C133.854 118.261 134.025 117.868 134.116 117.541L134.281 116.946L136.347 116.845C138.76 116.728 142.134 116.103 144.992 115.245C146.106 114.911 147.871 114.381 148.915 114.067C151.389 113.322 155.545 112.526 158.403 112.249C161.411 111.957 169.376 112.001 172.321 112.325C174.829 112.602 175.369 112.582 173.68 112.275C169.869 111.582 164.818 111.32 160.749 111.605ZM210.976 112.404C211.36 112.443 211.93 112.442 212.241 112.401C212.552 112.361 212.237 112.329 211.541 112.33C210.846 112.331 210.591 112.364 210.976 112.404ZM217.045 112.403C217.428 112.442 218.054 112.442 218.437 112.403C218.819 112.364 218.506 112.332 217.741 112.332C216.975 112.332 216.662 112.364 217.045 112.403ZM208.442 112.57C208.685 112.613 209.084 112.613 209.327 112.57C209.571 112.527 209.372 112.492 208.885 112.492C208.397 112.492 208.198 112.527 208.442 112.57ZM221.593 112.79C224.528 113.208 226.824 113.731 229.128 114.506C233.221 115.883 238.209 116.897 240.886 116.897C242 116.897 242.055 116.922 242.508 117.624C242.766 118.024 243.807 120.043 244.82 122.112C245.834 124.181 246.855 126.181 247.09 126.557C247.325 126.933 247.921 128.087 248.416 129.122C248.91 130.156 250.296 132.919 251.496 135.261C252.695 137.603 253.636 139.547 253.586 139.581C253.415 139.697 246.712 139.685 244.816 139.566C242.087 139.395 237.802 138.711 234.441 137.91C225.637 135.811 221.267 134.984 215.006 134.229C209.572 133.575 201.788 133.463 198.034 133.986C195.017 134.406 193.05 134.907 191.203 135.724C189.784 136.351 189.384 136.805 190.754 136.233C193.262 135.186 197.919 134.358 202.053 134.225C205.793 134.105 208.577 134.309 212.933 135.023C216.483 135.604 227.853 137.704 231.911 138.527C234.582 139.069 239.654 139.771 241.906 139.909C242.741 139.961 243.823 140.074 244.31 140.161C245.599 140.392 252.042 140.539 253.707 140.375L255.133 140.235L253.162 136.388C252.079 134.272 249.687 129.618 247.847 126.044C246.007 122.471 244.146 118.846 243.71 117.99L242.918 116.432L240.514 116.227C237.108 115.937 233.689 115.296 230.899 114.425C228.036 113.531 225.865 113.069 222.867 112.715C219.805 112.353 218.899 112.407 221.593 112.79ZM160.201 112.811C157.229 113.022 157.281 113.13 160.301 113.021C165.048 112.848 171.89 113.447 176.581 114.445C179.748 115.119 183.287 116.11 185.013 116.804L186.572 117.432L186.73 119.003C186.816 119.866 187.097 123.074 187.354 126.13L187.82 131.686L187.788 124.337L187.756 116.987L184.466 116.025C178.24 114.204 172.662 113.159 167.279 112.805C164.202 112.602 163.114 112.603 160.201 112.811ZM207.05 112.736C207.224 112.784 207.509 112.784 207.683 112.736C207.857 112.689 207.714 112.65 207.366 112.65C207.018 112.65 206.876 112.689 207.05 112.736ZM209.138 112.806C207.955 112.894 206.787 112.934 206.544 112.895C206.289 112.855 206.168 112.899 206.259 113C206.364 113.113 206.036 113.134 205.311 113.059C204.451 112.97 204.288 112.989 204.583 113.141C204.895 113.302 204.86 113.321 204.385 113.251C203.6 113.134 194.842 115.153 191.395 116.246L188.642 117.118L188.678 125.086L188.714 133.054L189.029 129.378C189.203 127.357 189.49 123.84 189.668 121.565L189.991 117.427L191.531 116.876C192.377 116.573 193.411 116.198 193.829 116.043C195.349 115.48 200.466 114.286 203.061 113.89C207.307 113.241 209.474 113.082 214.298 113.066C216.788 113.057 218.382 112.998 217.84 112.934C215.989 112.716 211.291 112.647 209.138 112.806ZM240.814 118.803C242.602 122.244 244.944 126.469 245 126.355C245.041 126.272 244.381 124.745 243.534 122.961C242.687 121.178 241.913 119.488 241.814 119.206C241.707 118.905 241.44 118.669 241.163 118.633C240.855 118.593 240.735 118.652 240.814 118.803ZM247.997 123.394C248.09 123.629 248.272 123.937 248.401 124.078C248.564 124.256 248.584 124.204 248.466 123.907C248.373 123.672 248.192 123.364 248.063 123.223C247.9 123.045 247.88 123.097 247.997 123.394ZM128.323 123.486C128.079 123.916 128.151 124.027 128.449 123.681C128.597 123.509 128.665 123.333 128.599 123.289C128.534 123.244 128.41 123.334 128.323 123.486ZM127.775 124.45C127.674 124.669 126 127.54 124.054 130.832C122.109 134.123 120.364 137.123 120.178 137.5C119.534 138.799 119.085 139.584 118.439 140.538C118.083 141.065 117.791 141.577 117.791 141.678C117.791 141.95 126.556 141.906 131.075 141.61C137.155 141.212 142.999 140.623 148.915 139.81C149.68 139.704 150.987 139.544 151.818 139.454C153.804 139.237 161.368 138.09 161.693 137.956C161.832 137.898 162.06 137.835 162.199 137.816C164.075 137.557 165.531 137.32 168.398 136.805C171.318 136.28 172.352 136.177 175.512 136.096C179.846 135.985 181.893 136.219 184.872 137.167C186.095 137.556 186.524 137.643 186.111 137.418C184.137 136.34 180.941 135.705 176.875 135.583C173.068 135.469 169.53 135.801 164.854 136.71C160.497 137.556 151.9 138.951 148.282 139.398C147.864 139.449 147.295 139.524 147.017 139.563C145.705 139.748 134.615 140.813 132.847 140.923C129.602 141.125 128.897 141.153 124.091 141.273C118.933 141.401 118.523 141.356 119.024 140.712C119.342 140.305 120.819 137.684 123.485 132.798C124.691 130.588 126.245 127.753 126.939 126.497C127.632 125.242 128.145 124.178 128.079 124.134C128.013 124.089 127.876 124.231 127.775 124.45ZM248.611 124.453C248.611 124.503 250.617 128.19 253.068 132.646C255.519 137.102 257.587 140.895 257.663 141.075C257.797 141.391 257.649 141.398 253.016 141.286C246.45 141.126 243.825 140.966 236.972 140.305C234.954 140.11 232.619 139.889 231.784 139.813C230.511 139.698 228.378 139.42 225.965 139.057C225.686 139.015 224.377 138.819 223.055 138.621C219.418 138.077 215.528 137.433 213.692 137.072C207.069 135.767 204.013 135.445 199.649 135.589C195.519 135.725 192.486 136.339 190.413 137.46C189.706 137.843 189.666 137.852 191.931 137.126C194.652 136.253 196.987 135.991 201.129 136.091C204.41 136.171 205.133 136.253 209.77 137.071C212.554 137.562 215.002 137.984 215.21 138.007C215.419 138.031 215.761 138.096 215.97 138.151C217.103 138.452 226.666 139.751 228.875 139.905C229.501 139.948 230.298 140.059 230.646 140.151C231.384 140.347 237.886 141.037 242.792 141.44C245.986 141.703 258.986 142.006 258.986 141.817C258.986 141.733 258.27 140.571 257.574 139.525C257.376 139.229 257.215 138.924 257.215 138.847C257.215 138.771 256.37 137.282 255.337 135.539C254.304 133.796 252.422 130.605 251.155 128.448C249.068 124.893 248.611 124.177 248.611 124.453ZM252.425 126.044C252.425 126.138 252.588 126.408 252.787 126.643C252.985 126.878 253.148 126.993 253.148 126.899C253.148 126.805 252.985 126.536 252.787 126.301C252.588 126.066 252.425 125.95 252.425 126.044ZM123.146 127.248C122.722 127.877 122.803 128.011 123.261 127.44C123.475 127.173 123.603 126.922 123.545 126.883C123.487 126.844 123.308 127.009 123.146 127.248ZM253.309 127.377C253.404 127.545 253.545 127.64 253.623 127.588C253.701 127.535 253.624 127.397 253.451 127.281C253.201 127.113 253.172 127.133 253.309 127.377ZM122.462 128.193C122.37 128.293 122.349 128.412 122.415 128.457C122.482 128.502 122.603 128.419 122.686 128.274C122.857 127.973 122.711 127.92 122.462 128.193ZM253.987 128.352C254.411 129.113 259.86 137.038 260.155 137.324C261.009 138.149 260.288 136.995 257.318 132.784C254.552 128.862 253.467 127.418 253.987 128.352ZM120.701 130.787C117.64 135.155 115.514 138.27 115.514 138.387C115.514 138.454 115.621 138.435 115.751 138.346C116.048 138.143 122.36 128.818 122.25 128.744C122.207 128.714 121.509 129.634 120.701 130.787ZM161.187 130.838C157.713 131.146 152.35 132.106 148.753 133.066C145.874 133.833 142.336 134.951 142.336 135.092C142.336 135.129 143.271 134.893 144.415 134.567C149.373 133.154 157.991 131.616 166.121 130.693C167.708 130.513 163.44 130.638 161.187 130.838ZM168.905 131.264C166.776 131.408 164.224 131.79 162.705 132.193C161.942 132.395 161.878 132.436 162.446 132.36C162.86 132.305 163.828 132.175 164.597 132.071C165.366 131.968 167.532 131.886 169.411 131.89C175.569 131.9 180.238 132.873 186.523 135.455C187.673 135.927 184.896 134.245 183.392 133.558C179.392 131.731 174.188 130.907 168.905 131.264ZM202.685 131.257C198.204 131.594 194.078 132.834 191.045 134.753L189.527 135.714L190.919 135.134C195.431 133.253 199.618 132.288 204.836 131.925C207.298 131.753 208.213 131.765 210.782 131.998C212.452 132.149 214.103 132.316 214.451 132.368C214.799 132.419 214.465 132.306 213.708 132.116C210.886 131.408 205.875 131.017 202.685 131.257ZM126.078 136.449C125.417 137.689 124.876 138.741 124.876 138.786C124.875 139.024 132.74 138.487 135.251 138.078C136.789 137.827 140.363 137.049 140.264 136.987C140.22 136.959 139.331 137.087 138.287 137.272C136.293 137.624 133.956 137.895 131.835 138.019C129.816 138.137 125.888 138.274 125.89 138.227C125.891 138.203 126.233 137.306 126.651 136.233C127.068 135.16 127.381 134.262 127.345 134.238C127.309 134.214 126.739 135.209 126.078 136.449ZM249.371 134.608C249.371 134.695 249.654 135.458 250 136.304C250.869 138.427 250.911 138.334 249.142 138.199C248.032 138.114 247.614 138.141 247.517 138.305C247.417 138.474 247.382 138.476 247.366 138.312C247.353 138.173 246.925 138.098 246.144 138.097C244.874 138.096 240.087 137.58 238.257 137.247C236.452 136.918 236.792 137.197 238.653 137.571C240.435 137.929 240.653 137.963 243.677 138.36C245.815 138.641 251.648 138.888 251.648 138.699C251.648 138.545 249.598 134.632 249.46 134.522C249.411 134.483 249.371 134.522 249.371 134.608ZM199.945 137.698C199.853 137.761 199.437 137.837 199.022 137.868C198.606 137.898 197.914 138.02 197.484 138.139C196.813 138.324 197.339 138.354 201.212 138.354C205.669 138.354 207.846 138.519 210.607 139.067C211.345 139.213 212.017 139.287 212.101 139.231C212.232 139.142 210.741 138.64 210.023 138.531C209.884 138.51 209.431 138.399 209.017 138.285C207.555 137.882 204.776 137.585 202.458 137.585C201.168 137.585 200.037 137.636 199.945 137.698ZM260.504 137.86C260.504 137.917 260.838 138.436 261.246 139.014C261.653 139.592 262.379 140.68 262.858 141.432C263.337 142.184 264.033 143.252 264.404 143.803L265.079 144.807L263.741 144.701C263.004 144.642 258.474 144.366 253.672 144.087C244.141 143.533 241.071 143.352 234.568 142.964C232.202 142.823 227.021 142.518 223.055 142.287C219.088 142.056 213.907 141.75 211.541 141.607C209.176 141.465 206.329 141.304 205.215 141.249L203.191 141.15L201.747 141.883C200.953 142.285 200.328 142.632 200.358 142.652C200.388 142.673 202.404 142.772 204.838 142.873C212.366 143.186 234.119 144.058 243.424 144.419C248.295 144.609 254.045 144.84 256.203 144.932C258.36 145.025 261.468 145.151 263.11 145.213L266.096 145.326L265.482 144.405C264.25 142.556 260.745 137.756 260.626 137.756C260.559 137.756 260.504 137.803 260.504 137.86ZM113.144 141.57C111.967 143.22 110.93 144.73 110.838 144.925C110.639 145.349 110.464 145.343 116.146 145.109C118.373 145.018 127.938 144.634 137.401 144.257C160.583 143.333 175.362 142.738 178.267 142.612L180.671 142.507L182.158 143.117C184.371 144.025 185.917 144.327 188.262 144.31C190.437 144.294 192.217 143.936 194.082 143.138L195.094 142.706L193.829 142.838C193.133 142.911 190.969 142.969 189.021 142.967C185.675 142.963 185.399 142.937 184.046 142.492C183.258 142.232 182.204 141.714 181.703 141.339C180.968 140.789 180.659 140.673 180.099 140.734C179.718 140.776 178.438 140.857 177.255 140.913C175.148 141.015 169.402 141.348 158.024 142.03C152.416 142.366 146.066 142.74 123.366 144.073C117.038 144.444 111.812 144.715 111.752 144.675C111.661 144.613 112.791 142.856 115.078 139.502C115.353 139.099 115.512 138.724 115.431 138.669C115.35 138.614 114.321 139.92 113.144 141.57Z" fill="#711FF7"/>
<path d="M275.588 94.7186C275.588 146.777 235.343 188.937 185.748 188.937C136.154 188.937 95.9094 146.777 95.9094 94.7186C95.9094 42.6605 136.154 0.5 185.748 0.5C235.343 0.5 275.588 42.6605 275.588 94.7186Z" stroke="#6404FF"/>
<defs>
<filter id="filter0_d" x="12.949" y="200.299" width="374.743" height="68.5068" filterUnits="userSpaceOnUse" color-interpolation-filters="sRGB">
<feFlood flood-opacity="0" result="BackgroundImageFix"/>
<feColorMatrix in="SourceAlpha" type="matrix" values="0 0 0 0 0 0 0 0 0 0 0 0 0 0 0 0 0 0 127 0"/>
<feOffset dx="1" dy="1"/>
<feGaussianBlur stdDeviation="2"/>
<feColorMatrix type="matrix" values="0 0 0 0 0.549066 0 0 0 0 0.489757 0 0 0 0 0.645833 0 0 0 0.71 0"/>
<feBlend mode="normal" in2="BackgroundImageFix" result="effect1_dropShadow"/>
<feBlend mode="normal" in="SourceGraphic" in2="effect1_dropShadow" result="shape"/>
</filter>
<filter id="filter1_d" x="117.941" y="36.2561" width="141.623" height="143.749" filterUnits="userSpaceOnUse" color-interpolation-filters="sRGB">
<feFlood flood-opacity="0" result="BackgroundImageFix"/>
<feColorMatrix in="SourceAlpha" type="matrix" values="0 0 0 0 0 0 0 0 0 0 0 0 0 0 0 0 0 0 127 0"/>
<feOffset dy="47"/>
<feGaussianBlur stdDeviation="13"/>
<feColorMatrix type="matrix" values="0 0 0 0 0 0 0 0 0 0 0 0 0 0 0 0 0 0 0.12 0"/>
<feBlend mode="normal" in2="BackgroundImageFix" result="effect1_dropShadow"/>
<feBlend mode="normal" in="SourceGraphic" in2="effect1_dropShadow" result="shape"/>
</filter>
<linearGradient id="paint0_linear" x1="201.394" y1="191.679" x2="201.394" y2="241" gradientUnits="userSpaceOnUse">
<stop stop-color="#5054FF"/>
<stop offset="1" stop-color="#711FF7"/>
</linearGradient>
</defs>
</svg>
